#!OML:ASF I:\Actors\actors\Patient Classification 2\Patient 1\Session 1\actor1.ASF
:FULLY-SPECIFIED
:DEGREES
1120
root -0.716715 18.7438 5.09431 0.334218 -2.70138 -2.3829
lowerback 5.32035 1.39296 -2.5621
upperback -0.958403 1.67568 -0.226101
thorax -4.04208 0.888926 1.05644
lowerneck -17.673 -3.67281 -0.794211
upperneck 19.0469 -6.5383 7.28742
head 9.20271 -2.31684 1.76981
rclavicle -1.90336e-014 -4.77083e-015
rhumerus -11.9361 36.1787 -83.8904
rradius 98.0649
rwrist -6.96499
rhand -9.14414 -43.9971
rfingers 7.12502
rthumb 16.8077 -73.2896
lclavicle -1.90336e-014 -4.77083e-015
lhumerus -13.3139 -35.6757 93.1575
lradius 100.931
lwrist 33.1525
lhand -28.3934 -23.1709
lfingers 7.12502
lthumb -1.76587 6.80159
rfemur 5.53114 2.19294 16.4251
rtibia 1.11319e-014
rfoot -15.1146 -10.8173
rtoes -3.12813
lfemur -5.93497 -3.38035 -11.5634
ltibia 22.0473
lfoot -20.789 13.706
ltoes -55.0718
1121
root -0.71023 18.7424 5.09384 0.273388 -2.67618 -2.56677
lowerback 5.42763 1.35041 -2.18931
upperback -0.970235 1.64134 -0.22163
thorax -4.10254 0.863794 0.852632
lowerneck -17.6207 -3.62373 -0.796661
upperneck 19.0999 -6.4759 7.29921
head 9.20918 -2.28628 1.78363
rclavicle -2.11209e-014 -1.59028e-015
rhumerus -12.2936 35.9286 -84.1663
rradius 97.8806
rwrist -7.04461
rhand -9.39227 -43.9207
rfingers 7.12502
rthumb 16.5688 -73.2333
lclavicle -2.11209e-014 -1.59028e-015
lhumerus -13.5702 -35.351 93.2449
lradius 100.837
lwrist 33.8244
lhand -27.5883 -22.3456
lfingers 7.12502
lthumb -0.988332 7.63186
rfemur 5.61626 2.17233 16.6146
rtibia 1.82882e-014
rfoot -15.0643 -10.8316
rtoes -3.29681
lfemur -5.87171 -3.38945 -11.3776
ltibia 22.0954
lfoot -20.8205 13.6573
ltoes -55.0708
1122
root -0.687206 18.7362 5.09055 0.080962 -2.53376 -3.16672
lowerback 5.62648 1.21591 -1.17577
upperback -0.876743 1.53406 -0.109916
thorax -4.08935 0.787472 0.406746
lowerneck -17.6229 -3.54225 -0.781691
upperneck 19.1358 -6.35413 7.23295
head 9.21313 -2.23454 1.77504
rclavicle -7.67806e-015 1.59028e-015
rhumerus -12.4985 35.6799 -84.3385
rradius 97.6218
rwrist -7.07757
rhand -8.60158 -44.322
rfingers 7.12502
rthumb 17.3299 -73.5694
lclavicle -7.67806e-015 1.59028e-015
lhumerus -13.7137 -34.851 93.2627
lradius 100.701
lwrist 34.5332
lhand -26.0303 -20.2734
lfingers 7.12502
lthumb 0.516468 9.70572
rfemur 5.87905 2.04364 17.2166
rtibia -1.59028e-015
rfoot -15.0399 -10.8619
rtoes -3.64649
lfemur -5.68104 -3.36018 -10.7745
ltibia 22.1868
lfoot -20.8627 13.416
ltoes -55.0929
1123
root -0.710969 18.7407 5.10243 0.279308 -2.66673 -2.62291
lowerback 4.75864 1.21106 -2.2704
upperback -0.625481 1.4785 -0.0622542
thorax -3.36932 0.777557 1.09629
lowerneck -17.7718 -3.42557 -0.759574
upperneck 19.0411 -6.16566 7.12197
head 9.19368 -2.15647 1.75655
rclavicle -1.69215e-014 -7.95139e-016
rhumerus -12.2844 35.4169 -84.2109
rradius 97.2352
rwrist -7.10064
rhand -8.94672 -43.0822
rfingers 7.12502
rthumb 16.9977 -72.3585
lclavicle -1.69215e-014 -7.95139e-016
lhumerus -13.5049 -34.2137 93.1123
lradius 100.5
lwrist 35.1184
lhand -24.5223 -18.5596
lfingers 7.12502
lthumb 1.97289 11.411
rfemur 5.64664 2.16136 16.6785
rtibia 7.15625e-015
rfoot -15.1047 -10.7747
rtoes -2.84067
lfemur -5.93917 -3.41265 -11.3151
ltibia 22.2892
lfoot -21.0051 13.5883
ltoes -55.0779
1124
root -0.723789 18.7375 5.11055 0.206258 -2.72854 -2.82091
lowerback 5.18176 1.30098 -1.87405
upperback -0.946385 1.60417 -0.195612
thorax -3.92933 0.837055 0.712438
lowerneck -17.542 -3.5003 -0.676175
upperneck 19.3061 -6.33444 7.21639
head 9.25286 -2.21609 1.75644
rclavicle 1.94436e-015 -4.77083e-015
rhumerus -13.5278 34.5172 -85.1237
rradius 96.8375
rwrist -6.83012
rhand -8.27546 -42.6836
rfingers 7.12502
rthumb 17.6438 -71.9031
lclavicle 1.94436e-015 -4.77083e-015
lhumerus -14.4691 -34.1624 93.3715
lradius 100.296
lwrist 35.7387
lhand -23.1632 -17.254
lfingers 7.12502
lthumb 3.28545 12.7005
rfemur 5.75517 2.22108 16.9411
rtibia -2.38542e-015
rfoot -15.1682 -10.6624
rtoes -2.28276
lfemur -5.84098 -3.36889 -11.0571
ltibia 22.3201
lfoot -20.9961 13.5906
ltoes -55.0559
1125
root -0.727904 18.7328 5.11693 0.0671695 -2.74308 -3.16187
lowerback 5.38385 1.31788 -1.52941
upperback -1.0403 1.64972 -0.074707
thorax -4.13551 0.854802 0.633912
lowerneck -17.3743 -3.51882 -0.70546
upperneck 19.4169 -6.34438 7.15338
head 9.25907 -2.23061 1.7409
rclavicle -5.87036e-015 -1.59028e-015
rhumerus -14.2846 33.9271 -85.4682
rradius 96.2852
rwrist -6.70969
rhand -6.88432 -44.0241
rfingers 7.12502
rthumb 18.9821 -73.1179
lclavicle -5.87036e-015 -1.59028e-015
lhumerus -14.989 -33.7602 93.6316
lradius 99.8462
lwrist 36.4611
lhand -21.6968 -15.9368
lfingers 7.12502
lthumb 4.70158 13.9911
rfemur 5.95295 2.23725 17.3408
rtibia -2.38542e-015
rfoot -15.2049 -10.578
rtoes -2.26876
lfemur -5.59893 -3.31247 -10.6614
ltibia 22.2108
lfoot -20.9366 13.5274
ltoes -55.061
1126
root -0.724043 18.7356 5.12114 0.183005 -2.72748 -2.67253
lowerback 5.14235 1.30557 -2.09317
upperback -1.10039 1.59849 -0.108347
thorax -4.07557 0.842617 0.924324
lowerneck -17.2592 -3.49514 -0.786201
upperneck 19.4706 -6.26886 7.05448
head 9.25117 -2.21359 1.73212
rclavicle 1.83721e-014 -7.95139e-016
rhumerus -14.7943 33.5257 -85.619
rradius 95.5999
rwrist -6.81274
rhand -6.96567 -44.2228
rfingers 7.12502
rthumb 18.9038 -73.3242
lclavicle 1.83721e-014 -7.95139e-016
lhumerus -15.3293 -33.1786 93.8271
lradius 99.2151
lwrist 37.1297
lhand -20.1325 -14.6462
lfingers 7.12502
lthumb 6.2119 15.2427
rfemur 5.81998 2.2213 16.7748
rtibia -7.15625e-015
rfoot -15.2155 -10.5562
rtoes -2.33595
lfemur -5.72071 -3.39906 -11.2278
ltibia 22.1813
lfoot -20.9818 13.6066
ltoes -55.0502
